<?xml version="1.0" standalone="no"?>
<!DOCTYPE svg PUBLIC "-//W3C//DTD SVG 20010904//EN"
 "http://www.w3.org/TR/2001/REC-SVG-20010904/DTD/svg10.dtd">
<svg version="1.0" xmlns="http://www.w3.org/2000/svg"
 width="263.000000pt" height="262.000000pt" viewBox="0 0 263.000000 262.000000"
 preserveAspectRatio="xMidYMid meet">

<g transform="translate(0.000000,262.000000) scale(0.100000,-0.100000)"
fill="#000000" stroke="none">
<path d="M166 2600 c-66 -26 -122 -82 -146 -147 -20 -52 -20 -79 -20 -1143 0
-1060 1 -1091 20 -1142 26 -68 81 -123 147 -148 53 -20 79 -20 1148 -20 1069
0 1095 0 1148 20 66 25 121 80 147 148 19 51 20 82 20 1142 0 1060 -1 1091
-20 1142 -26 68 -81 123 -147 148 -53 20 -79 20 -1151 20 -1058 -1 -1099 -2
-1146 -20z m1577 -301 c60 -49 66 -88 68 -419 0 -157 2 -316 3 -353 1 -57 -2
-71 -18 -83 -47 -34 -113 -11 -205 73 -34 30 -67 53 -74 50 -8 -3 -24 -32 -36
-66 -36 -100 -64 -112 -142 -63 -51 33 -73 57 -65 71 13 20 27 167 35 371 5
118 12 223 16 233 9 21 44 22 89 3 39 -16 96 -84 124 -148 11 -25 31 -63 45
-83 l25 -37 6 43 c3 24 12 111 21 194 15 137 43 245 64 245 4 0 23 -14 44 -31z
m-1451 -14 c52 -35 73 -76 104 -203 16 -67 33 -116 41 -119 24 -9 57 15 93 68
56 82 86 88 148 31 37 -34 42 -44 42 -81 0 -53 -18 -89 -91 -178 l-59 -71 0
-87 c0 -87 -25 -290 -41 -332 -30 -80 -156 69 -179 212 -7 41 -6 79 2 121 6
33 8 72 5 86 -4 15 -36 50 -77 83 -81 66 -82 69 -110 262 -20 146 -16 191 23
218 30 21 57 19 99 -10z m1918 -45 c42 -21 82 -67 100 -114 8 -22 8 -41 -1
-75 -10 -40 -9 -55 10 -115 28 -92 27 -151 -6 -237 -36 -91 -91 -153 -153
-169 -87 -23 -208 29 -284 123 -29 37 -31 44 -30 120 1 88 26 194 70 300 45
107 80 141 178 172 58 18 72 18 116 -5z m-1041 -147 c29 -26 45 -50 51 -78 20
-88 6 -281 -31 -414 -83 -297 -334 -290 -420 12 -21 71 -24 103 -24 247 1 164
13 250 37 250 23 0 104 -60 123 -92 17 -28 21 -57 25 -182 5 -162 14 -183 50
-124 26 43 53 130 85 276 14 64 28 123 30 130 7 21 31 13 74 -25z m954 -777
c45 -18 86 -70 93 -117 l7 -40 76 6 c93 9 149 -5 196 -46 43 -38 51 -63 30
-95 -27 -41 -97 -79 -214 -114 l-111 -34 0 -36 c0 -20 5 -84 11 -143 10 -97 9
-110 -9 -151 -11 -24 -29 -49 -41 -55 -45 -25 -129 41 -151 117 -5 20 -13 74
-17 120 -5 66 -9 82 -20 77 -8 -3 -25 -5 -37 -5 -22 0 -22 -2 -18 -89 4 -77 1
-96 -18 -135 -36 -75 -120 -132 -210 -143 -46 -5 -51 -4 -81 28 -65 70 -104
190 -80 252 15 38 39 34 81 -14 39 -45 62 -46 78 0 15 42 -5 75 -112 186 -53
55 -99 110 -102 123 -4 13 -4 41 -1 63 23 173 276 220 355 66 30 -57 24 -77
-22 -77 -19 0 -47 -5 -61 -10 -23 -9 -26 -14 -20 -38 15 -61 44 -68 74 -18 23
36 81 66 130 66 41 0 58 25 81 124 21 90 35 125 54 138 15 11 22 10 59 -6z
m-1291 -190 c14 -9 30 -34 36 -55 10 -33 8 -53 -15 -142 -33 -131 -33 -179 0
-306 29 -108 38 -236 19 -255 -18 -18 -68 10 -152 84 -100 88 -93 84 -128 60
-17 -12 -44 -25 -61 -28 l-30 -6 -3 -116 c-3 -132 -11 -146 -68 -122 -50 21
-90 59 -131 125 -22 34 -61 78 -91 100 -125 95 -109 174 42 206 l50 11 0 161
c0 227 21 264 123 219 24 -11 57 -37 73 -57 28 -37 29 -43 32 -167 3 -113 6
-128 21 -128 21 0 63 44 79 83 7 17 12 80 12 160 0 116 3 136 21 166 20 34 20
34 83 29 35 -3 74 -13 88 -22z m387 -57 c75 -26 181 -94 198 -129 16 -32 17
-201 2 -272 -23 -107 -81 -178 -169 -208 -81 -27 -156 -4 -270 85 -82 65 -94
91 -93 202 0 116 29 213 81 274 62 72 136 87 251 48z"/>
<path d="M2086 1951 c-21 -22 -30 -43 -33 -78 -6 -59 15 -94 44 -77 25 14 66
102 67 144 1 30 -2 35 -24 38 -18 2 -34 -6 -54 -27z"/>
<path d="M1125 819 c-22 -27 -25 -40 -23 -83 3 -49 4 -51 32 -49 56 4 95 73
74 133 -14 41 -48 40 -83 -1z"/>
</g>
</svg>
